<svg version="1" xmlns="http://www.w3.org/2000/svg" width="682.667" height="682.667" viewBox="0 0 512.000000 512.000000"><path d="M0 128v128h256v256h256V256H256V0H0v128zm224.8-98.8c1.7 1.7 1.7 29.4 0 30.5-.7.4-29.2 1-63.3 1.3l-62 .5-.3 24.7L99 111h47.8c35.8 0 48.1.3 49 1.2 1.8 1.8 1.7 29.2-.1 30.7-1 .7-15.8 1.2-48.8 1.3l-47.4.3-.3 40.5c-.2 36.7-.4 40.6-1.9 41.7-2.2 1.7-58.4 1.9-61.4.3-1.9-1-1.9-3.2-1.9-99 0-92.2.1-98 1.8-98.9 2.7-1.6 187.4-1.5 189 .1zm115.5 257c1.9 1.8 4.1 7.6 9.2 24.3 3.7 12.1 9.3 30.3 12.5 40.5 3.1 10.2 9.2 29.9 13.5 43.8 4.3 13.9 8.2 24.9 8.6 24.5.4-.4 9.8-30.1 20.9-65.8 16.2-52 20.7-65.4 22.7-67.3 2.4-2.1 2.9-2.2 25.8-2.2 19.9 0 23.6.2 24.9 1.6.9.8 1.6 1.7 1.6 1.9 0 .4-41.3 117.9-58.9 167.5-6.1 17.1-9.8 26.1-11.2 27.2-1.9 1.6-4.7 1.8-26.3 1.8-19.1-.1-24.5-.4-25.9-1.5-1.1-.7-3.8-6.9-6.2-13.7-2.4-6.8-17.4-49.6-33.4-95.2S289 289.5 289 287.9c0-1.5.6-3 1.3-3.2.6-.3 11.6-.6 24.4-.6 22.7-.1 23.2-.1 25.6 2.1z"/><path d="M337.6 29.1c-18.6 2-33.3 7.6-40.9 15.8-7.3 7.8-7.7 10.1-7.7 47.6 0 36.6-.1 36.1 8.2 38.4 2.4.7 29.7 5.6 60.8 10.9l56.5 9.7v36.7l-3.2 2.8c-4.2 3.8-7.9 4.2-30.8 3.8-26.6-.4-27.5-1.1-27.5-19.8 0-9.8-.2-11-1.9-12-2.6-1.3-56-1.4-59.6 0l-2.7 1 .4 18.3c.4 20.9 1 22.9 9.3 30.6 8.1 7.5 21.5 12.1 40.6 14.1 13.1 1.3 76.6 1.3 90 0 20.6-2.1 34-7.1 42.3-16 7.2-7.7 7.6-10.1 7.6-47.2v-31.9l-2.4-2.4c-1.3-1.3-4.1-2.8-6.2-3.4-2.2-.6-28.9-5.3-59.4-10.6-30.5-5.2-56.1-9.8-56.8-10-1-.4-1.3-4.4-1-19.1l.3-18.6 2.8-2.4c4.5-3.9 9.4-4.6 30.6-4.2 27.3.4 28.1 1 28.1 19.8 0 9.8.2 11 1.9 12 2.6 1.3 56 1.4 59.6 0l2.7-1-.4-18.3c-.3-16.6-.5-18.6-2.5-22.4-6.8-12.6-21.7-19.7-46.8-22.2-12.4-1.3-80-1.3-91.9 0zM35.8 285.1c-1.7.9-1.8 6.7-1.8 99V482l2.6 1c3.6 1.4 126 1.3 139.9-.1 25.6-2.6 41.4-10.1 47.6-22.6l2.4-4.8v-142l-2.8-5.7c-6.3-12.7-21.7-20.1-47.6-22.7-13.7-1.4-137.9-1.4-140.3 0zm118.6 33c2.1.6 4.9 2.1 6.2 3.4l2.4 2.4v120.2l-2.4 2.4c-3.9 3.9-8.5 4.5-35.8 4.5H99V317h25.8c15.3 0 27.3.4 29.6 1.1z"/></svg>